<?xml version="1.0" standalone="no"?>
<!DOCTYPE svg PUBLIC "-//W3C//DTD SVG 20010904//EN"
 "http://www.w3.org/TR/2001/REC-SVG-20010904/DTD/svg10.dtd">
<svg version="1.0" xmlns="http://www.w3.org/2000/svg"
 width="1272.000000pt" height="1272.000000pt" viewBox="0 0 1272.000000 1272.000000"
 preserveAspectRatio="xMidYMid meet">
<metadata>
Created by potrace 1.14, written by Peter Selinger 2001-2017
</metadata>
<g transform="translate(0.000000,1272.000000) scale(0.100000,-0.100000)"
fill="#000000" stroke="none">
<path d="M3090 12653 c-46 -7 -53 -12 -40 -27 14 -18 -3 -28 -80 -46 -136 -31
-370 -152 -463 -239 -76 -72 -277 -330 -277 -356 0 -4 -8 -19 -19 -33 -33 -47
-111 -298 -142 -455 -52 -271 -43 -683 23 -987 11 -52 21 -99 22 -105 11 -51
60 -202 81 -250 7 -16 18 -46 25 -65 38 -102 127 -281 186 -373 24 -37 44 -70
44 -72 0 -4 17 -27 45 -59 6 -6 26 -34 45 -61 19 -28 47 -63 61 -78 28 -29 29
-61 3 -71 -8 -3 -14 -13 -14 -21 0 -28 -29 -50 -50 -37 -14 9 -19 7 -27 -11
-12 -25 -12 -43 -1 -40 5 2 8 -6 8 -17 0 -11 7 -23 15 -26 8 -4 15 -17 15 -30
0 -28 -20 -74 -32 -74 -5 0 -6 -4 -3 -10 3 -5 -4 -31 -15 -57 -12 -27 -33 -79
-46 -118 -14 -38 -28 -77 -31 -85 -3 -8 -7 -19 -8 -25 -2 -5 -15 -44 -29 -87
-38 -112 -64 -240 -117 -588 -17 -107 -32 -206 -33 -220 -2 -14 -6 -44 -10
-66 -4 -23 -9 -66 -11 -95 -3 -30 -7 -65 -10 -79 -6 -26 -8 -41 -20 -145 -4
-33 -8 -71 -10 -85 -2 -14 -7 -52 -11 -85 -3 -33 -8 -69 -10 -80 -2 -11 -11
-60 -20 -110 -8 -49 -17 -92 -19 -95 -2 -4 -11 -41 -20 -83 -23 -112 -114
-371 -175 -502 -35 -73 -130 -286 -130 -290 0 -2 -20 -46 -44 -97 -24 -51 -67
-149 -96 -218 -28 -69 -58 -140 -67 -158 -42 -93 -114 -449 -122 -602 -15
-302 0 -451 83 -855 56 -271 158 -537 314 -820 30 -55 67 -118 82 -140 91
-137 120 -178 172 -250 33 -44 64 -87 71 -95 7 -8 40 -50 75 -93 34 -43 62
-82 62 -88 0 -5 4 -9 8 -9 4 0 68 -60 143 -133 74 -72 154 -148 178 -167 23
-19 57 -49 75 -65 17 -17 76 -69 131 -115 55 -47 102 -87 105 -90 6 -6 188
-151 240 -192 185 -142 476 -345 607 -424 17 -10 87 -55 155 -98 121 -78 189
-119 318 -188 36 -20 83 -45 105 -58 143 -81 480 -250 498 -250 7 0 21 -6 32
-14 11 -7 34 -16 50 -20 17 -4 58 -21 93 -37 35 -16 67 -29 71 -29 4 0 48 -18
98 -39 87 -38 283 -114 448 -173 106 -38 232 -96 272 -125 17 -13 36 -23 42
-23 6 0 11 -4 11 -9 0 -8 115 -91 126 -91 2 0 39 -24 82 -54 245 -168 478
-239 792 -239 131 0 157 3 275 33 219 55 355 137 530 320 65 67 69 72 155 177
60 73 57 71 320 205 344 176 440 229 440 241 0 4 5 7 11 7 6 0 43 21 83 46
138 91 151 99 161 107 13 11 183 133 215 155 42 28 243 184 283 219 20 18 41
33 46 33 5 0 22 12 38 27 16 16 60 52 99 82 72 56 206 173 233 204 9 10 29 25
44 34 16 8 27 17 24 20 -6 6 52 63 64 63 5 0 9 5 9 11 0 7 12 24 27 39 16 14
57 60 92 101 35 41 74 83 86 95 22 20 96 102 145 160 14 16 24 32 22 36 -1 4
7 12 18 18 11 6 20 15 20 20 0 10 19 35 60 79 14 14 34 44 45 65 11 22 26 45
32 52 7 7 43 56 79 111 37 54 72 101 78 105 6 4 7 8 3 8 -4 0 10 24 31 53 22
28 48 68 58 87 10 19 24 42 31 50 6 8 32 57 58 108 25 50 51 92 57 92 6 0 9 3
5 6 -3 3 10 38 30 78 19 39 45 91 56 116 11 25 24 53 29 64 5 10 11 26 14 35
6 28 35 114 57 170 11 30 22 64 23 76 3 26 11 77 20 120 10 53 20 178 18 227
-4 95 -14 234 -19 258 -3 13 -7 42 -11 65 -3 22 -10 58 -15 80 -5 22 -12 54
-14 70 -2 17 -16 64 -30 105 -15 41 -28 86 -30 100 -1 14 -7 38 -14 53 -6 16
-11 32 -11 37 0 9 -24 67 -41 102 -5 10 -9 23 -9 30 0 14 -83 182 -99 201 -5
7 -14 31 -20 53 -6 23 -18 47 -26 54 -8 7 -15 20 -15 29 0 9 -9 31 -20 49 -11
18 -20 38 -20 46 0 7 -13 26 -30 42 -16 16 -32 45 -36 64 -4 19 -15 43 -26 54
-10 11 -24 38 -30 61 -7 22 -16 43 -21 46 -5 3 -8 9 -8 13 3 18 -13 58 -28 69
-20 14 -71 113 -71 137 0 9 -11 37 -25 61 -42 74 -48 92 -47 134 0 22 -6 61
-14 87 -9 26 -13 52 -9 58 3 5 1 10 -4 10 -19 0 -13 50 7 51 10 0 12 3 5 6
-19 7 -16 41 6 64 18 20 18 24 5 63 -11 28 -13 55 -8 86 5 25 9 50 9 55 1 6 5
21 10 35 5 14 9 36 10 50 1 14 5 32 10 39 9 16 15 47 21 106 2 22 7 76 11 120
5 48 5 94 -1 114 -6 23 -6 47 2 77 15 57 15 74 -2 93 -14 16 -20 46 -32 166
-3 33 -9 78 -14 99 -5 22 -7 44 -4 48 3 4 0 8 -5 8 -6 0 -11 12 -11 26 0 14
-4 33 -9 42 -5 9 -11 53 -14 97 -3 44 -15 107 -26 139 -12 33 -21 69 -21 80 0
12 -7 32 -16 44 -8 12 -13 22 -10 22 3 0 1 12 -5 26 -5 15 -12 43 -15 63 -6
43 -44 172 -54 186 -4 6 -6 18 -5 27 2 10 -1 20 -6 24 -5 3 -9 13 -9 23 0 10
-9 44 -19 77 -11 32 -21 68 -23 79 -2 11 -6 22 -10 25 -4 3 -9 17 -12 30 -8
43 -23 85 -40 118 -9 18 -19 58 -21 90 -5 69 -43 184 -67 202 -4 3 -12 46 -18
95 -16 116 -36 175 -60 175 -10 0 -29 14 -41 32 -19 27 -22 43 -21 109 2 76
13 115 40 132 6 4 12 18 12 31 0 57 13 88 41 98 15 5 30 19 33 31 3 12 12 31
21 42 39 50 66 95 100 163 20 39 40 72 44 72 4 0 14 19 21 43 7 23 21 54 31
68 14 20 50 126 62 184 2 6 5 15 9 20 3 6 7 26 9 45 2 19 7 37 11 40 4 3 10
30 13 60 4 30 11 69 16 87 6 18 12 56 14 85 21 286 22 333 11 468 -10 129 -17
182 -37 285 -11 55 -22 113 -25 129 -2 16 -9 36 -13 45 -5 9 -11 31 -14 49 -7
43 -54 163 -111 282 -39 82 -98 164 -168 233 -37 37 -68 70 -68 72 0 7 -50 55
-57 55 -4 0 -13 7 -22 15 -54 51 -147 110 -191 120 -16 4 -38 11 -135 46 -69
24 -213 48 -265 43 -190 -17 -220 -24 -344 -86 -126 -63 -175 -97 -256 -178
-50 -50 -158 -172 -192 -216 -12 -16 -25 -31 -28 -34 -11 -8 -108 -156 -141
-212 -69 -119 -164 -341 -173 -405 -1 -7 -5 -16 -9 -19 -4 -4 -7 -19 -7 -33 0
-39 -14 -54 -44 -49 -14 3 -26 1 -26 -4 0 -12 -69 -1 -87 13 -7 6 -13 8 -13 3
0 -5 -4 -3 -9 4 -4 8 -28 18 -52 23 -24 6 -46 14 -49 19 -3 5 -26 11 -51 13
-24 3 -67 14 -94 25 -28 12 -66 23 -86 25 -19 2 -46 10 -60 18 -13 7 -33 14
-44 15 -12 2 -59 12 -105 24 -47 12 -96 24 -110 26 -14 3 -41 9 -60 14 -19 4
-57 12 -85 16 -27 4 -57 9 -65 11 -8 1 -37 6 -65 9 -27 3 -52 7 -55 9 -3 2
-46 6 -95 10 -50 4 -99 9 -110 11 -112 22 -833 21 -990 -1 -16 -2 -70 -7 -119
-10 -49 -3 -92 -7 -95 -9 -3 -2 -37 -7 -76 -10 -38 -4 -77 -9 -85 -11 -8 -2
-35 -6 -60 -9 -120 -15 -612 -127 -634 -145 -10 -7 -67 -24 -74 -22 -1 1 -16
-6 -32 -14 -16 -8 -33 -15 -37 -15 -13 0 -73 -21 -101 -36 -34 -17 -92 -18
-92 -2 0 7 -7 2 -16 -10 -14 -21 -53 -31 -55 -14 -4 45 -52 232 -59 232 -4 0
-7 6 -7 13 -1 19 -27 111 -33 117 -3 3 -12 25 -19 50 -15 51 -80 188 -98 208
-7 7 -13 21 -13 29 0 9 -11 31 -25 49 -14 18 -25 37 -25 42 0 6 -7 12 -15 16
-8 3 -15 10 -15 16 0 19 -90 139 -142 190 -26 26 -48 52 -48 59 0 6 -9 11 -19
11 -11 0 -28 10 -38 23 -10 13 -23 22 -29 20 -20 -7 -39 27 -27 46 12 19 0 28
-100 70 -43 18 -47 18 -45 3 4 -25 -30 -27 -72 -3 -20 11 -40 18 -44 14 -6 -6
-10 11 -7 33 1 7 -13 14 -31 18 -18 3 -44 8 -56 11 -20 3 -22 2 -12 -10 6 -8
9 -18 7 -22 -3 -5 -58 -8 -123 -6 -118 3 -155 13 -134 38 11 13 -6 15 -60 8z"/>
<path d="M6350 11789 c0 -5 5 -7 10 -4 6 3 10 8 10 11 0 2 -4 4 -10 4 -5 0
-10 -5 -10 -11z"/>
<path d="M8137 11476 c-14 -11 -15 -15 -3 -19 8 -3 16 2 19 14 3 10 4 19 4 19
-1 0 -10 -7 -20 -14z"/>
<path d="M10571 11364 c0 -11 3 -14 6 -6 3 7 2 16 -1 19 -3 4 -6 -2 -5 -13z"/>
<path d="M10595 11009 c-4 -6 -5 -12 -2 -15 2 -3 7 2 10 11 7 17 1 20 -8 4z"/>
<path d="M10110 9413 c0 -14 19 -38 25 -32 8 8 -5 39 -16 39 -5 0 -9 -3 -9 -7z"/>
<path d="M10176 9305 c8 -37 10 -39 17 -21 3 8 -1 22 -9 33 -13 17 -14 16 -8
-12z"/>
<path d="M10575 6620 c-3 -5 -1 -10 4 -10 6 0 11 5 11 10 0 6 -2 10 -4 10 -3
0 -8 -4 -11 -10z"/>
<path d="M10570 6379 c0 -5 5 -7 10 -4 6 3 10 8 10 11 0 2 -4 4 -10 4 -5 0
-10 -5 -10 -11z"/>
<path d="M1371 5204 c0 -11 3 -14 6 -6 3 7 2 16 -1 19 -3 4 -6 -2 -5 -13z"/>
<path d="M11321 4714 c0 -11 3 -14 6 -6 3 7 2 16 -1 19 -3 4 -6 -2 -5 -13z"/>
<path d="M11353 4405 c0 -44 2 -61 4 -37 2 23 2 59 0 80 -2 20 -4 1 -4 -43z"/>
<path d="M11341 4054 c0 -11 3 -14 6 -6 3 7 2 16 -1 19 -3 4 -6 -2 -5 -13z"/>
</g>
</svg>
